<svg xmlns="http://www.w3.org/2000/svg" viewBox="0 0 53.12 81.14"><defs><style>.cls-1{fill:#dddddd;}</style></defs><title>logo-converter</title><g id="Calque_2" data-name="Calque 2"><g id="Calque_1-2" data-name="Calque 1"><circle class="cls-1" cx="24.26" cy="74.98" r="6.16"/><path class="cls-1" d="M45.2,33.44h7.92V26.69H47.87a22.54,22.54,0,0,0,.42-4.49,24.14,24.14,0,0,0-1.72-9.43,19.35,19.35,0,0,0-4.83-6.94A21.21,21.21,0,0,0,34.36,1.5,28.5,28.5,0,0,0,24.87,0,26.21,26.21,0,0,0,14.44,2,22,22,0,0,0,6.56,7.6a25,25,0,0,0-4.94,8.5A29.5,29.5,0,0,0,0,26.64H9.44a28,28,0,0,1,.89-7.21,15.55,15.55,0,0,1,2.83-5.78A14.15,14.15,0,0,1,18,9.77a15.25,15.25,0,0,1,6.88-1.44q6,0,9.49,3.44t3.94,9.54a17.52,17.52,0,0,1-.46,5.38H21.05v6.75H34.14a1.71,1.71,0,0,0-.11.14,51.43,51.43,0,0,1-4.44,4.55c-.66.6-1.3,1.23-1.94,1.87H12.77v6.75h9.59q-.52.93-1,1.92a21.76,21.76,0,0,0-1.72,7.94v5.22h9.44V57.5a15,15,0,0,1,.83-5.16,17.88,17.88,0,0,1,2.22-4.22c.34-.47.7-.92,1.06-1.37H46.63V40H39.79c.82-.84,1.64-1.71,2.45-2.59A25.77,25.77,0,0,0,45.2,33.44Z"/></g></g></svg>